<?xml version="1.0" standalone="no"?>
<!DOCTYPE svg PUBLIC "-//W3C//DTD SVG 20010904//EN"
 "http://www.w3.org/TR/2001/REC-SVG-20010904/DTD/svg10.dtd">
<svg version="1.0" xmlns="http://www.w3.org/2000/svg"
 width="300.000000pt" height="90.000000pt" viewBox="0 0 300.000000 90.000000"
 preserveAspectRatio="xMidYMid meet">
<metadata>
Created by potrace 1.10, written by Peter Selinger 2001-2011
</metadata>
<g transform="translate(0.000000,90.000000) scale(0.100000,-0.100000)"
fill="#000000" stroke="none">
<path d="M630 854 c-30 -25 -112 -183 -170 -326 l-24 -58 -215 -2 c-184 -3
-216 -5 -216 -18 0 -11 17 -17 65 -22 103 -12 180 -27 250 -50 36 -11 66 -22
68 -23 1 -1 -4 -15 -13 -31 -8 -16 -15 -32 -15 -36 0 -3 -22 -53 -49 -110 -28
-57 -53 -120 -57 -141 -6 -38 -6 -38 21 -35 36 4 62 53 111 208 20 63 39 118
43 123 12 13 431 -175 532 -238 41 -27 64 -31 74 -15 8 13 -25 116 -73 228
l-41 94 67 -6 c37 -3 94 -8 127 -10 58 -5 263 -22 355 -31 25 -2 88 -9 140
-15 52 -6 115 -13 140 -16 150 -16 415 -50 456 -58 10 -2 61 -9 113 -16 52 -7
104 -13 115 -15 12 -1 57 -8 101 -14 256 -36 366 -45 399 -32 24 10 26 14 15
27 -23 28 -52 37 -168 50 -144 16 -292 33 -351 40 -25 3 -108 11 -185 20 -77
8 -207 22 -290 31 -82 9 -169 16 -192 17 -48 1 -49 2 -27 27 30 33 -9 74 -47
51 -29 -19 -45 -14 -74 19 -20 24 -25 38 -20 60 8 36 -12 109 -30 109 -25 0
-38 -40 -31 -101 5 -52 3 -61 -19 -87 -34 -40 -60 -45 -92 -18 -52 45 -27 146
37 146 29 0 43 19 34 45 -10 26 -50 16 -93 -22 -51 -45 -63 -96 -37 -157 l16
-38 -53 6 c-28 3 -79 9 -112 12 -33 3 -62 7 -64 9 -11 12 98 175 117 175 4 0
6 -32 4 -72 -4 -60 -2 -74 13 -84 13 -10 23 -10 38 -3 17 10 19 18 14 72 -7
79 -24 125 -48 132 -29 9 -77 -25 -110 -77 -16 -27 -31 -48 -34 -48 -3 0 -5
22 -4 50 2 49 -12 80 -36 80 -8 0 -34 -9 -60 -20 -49 -21 -57 -42 -23 -64 13
-8 22 -5 43 14 13 13 28 21 31 18 3 -4 6 -44 7 -89 l2 -83 -45 2 c-131 7 -161
13 -170 38 -40 105 -166 363 -186 382 -32 28 -36 28 -74 -4z m139 -224 c44
-96 79 -176 77 -177 -1 -1 -49 2 -107 7 -57 5 -137 9 -176 10 -40 0 -73 2 -73
4 0 19 126 285 158 334 12 19 17 21 28 10 7 -7 49 -92 93 -188z m804 -238
c-45 -4 -49 1 -26 32 l18 24 22 -26 21 -27 -35 -3z m-1159 23 c-7 -19 -22 -19
-54 0 -25 14 -24 14 17 15 34 0 41 -3 37 -15z m245 0 c96 -4 184 -11 196 -15
13 -5 30 -27 40 -52 56 -137 83 -209 77 -206 -4 2 -70 35 -147 74 -77 39 -192
93 -255 119 -63 27 -116 50 -118 51 -7 5 19 44 26 40 4 -2 85 -7 181 -11z
m1041 -15 c0 -5 -18 -10 -40 -10 -22 0 -40 5 -40 10 0 6 18 10 40 10 22 0 40
-4 40 -10z"/>
</g>
</svg>
